<?xml version="1.0" encoding="utf-8"?><!-- Uploaded to: SVG Repo, www.svgrepo.com, Generator: SVG Repo Mixer Tools -->
<svg viewBox="0 0 24 24" fill="none" xmlns="http://www.w3.org/2000/svg">
<path d="M21 14C21 14.5523 20.5523 15 20 15H17V3H20C20.5523 3 21 3.44772 21 4V14Z" stroke="#7b7b7b" stroke-width="2" stroke-linecap="round" stroke-linejoin="round"/>
<path d="M17 13V5L15.0077 3.6718C14.3506 3.23375 13.5786 3 12.7889 3H7.54138C6.07486 3 4.82329 4.06024 4.5822 5.5068L3.38813 12.6712C3.18496 13.8903 4.12504 15 5.36092 15H10" stroke="#7b7b7b" stroke-width="2" stroke-linecap="round" stroke-linejoin="round"/>
<path d="M10 15L9.31283 18.4358C9.13411 19.3294 9.64876 20.2163 10.5133 20.5044V20.5044C11.3664 20.7888 12.2987 20.4026 12.7008 19.5983L16 13H17" stroke="#7b7b7b" stroke-width="2" stroke-linecap="round" stroke-linejoin="round"/>
</svg>