<?xml version="1.0" encoding="utf-8"?><!-- Uploaded to: SVG Repo, www.svgrepo.com, Generator: SVG Repo Mixer Tools -->
<svg width="800px" height="800px" viewBox="0 0 24 24" fill="none" xmlns="http://www.w3.org/2000/svg">
<path d="M3 10C3 9.44772 3.44772 9 4 9H7V21H4C3.44772 21 3 20.5523 3 20V10Z" stroke="#000000" stroke-width="2" stroke-linecap="round" stroke-linejoin="round"/>
<path d="M7 11V19L8.9923 20.3282C9.64937 20.7662 10.4214 21 11.2111 21H16.4586C17.9251 21 19.1767 19.9398 19.4178 18.4932L20.6119 11.3288C20.815 10.1097 19.875 9 18.6391 9H14" stroke="#000000" stroke-width="2" stroke-linecap="round" stroke-linejoin="round"/>
<path d="M14 9L14.6872 5.56415C14.8659 4.67057 14.3512 3.78375 13.4867 3.49558V3.49558C12.6336 3.21122 11.7013 3.59741 11.2992 4.4017L8 11H7" stroke="#000000" stroke-width="2" stroke-linecap="round" stroke-linejoin="round"/>
</svg>